<svg width="100%" height="100%" viewBox="0 0 264 236" version="1.1" xmlns="http://www.w3.org/2000/svg" xmlns:xlink="http://www.w3.org/1999/xlink">
    <g id="Welcome" stroke="none" stroke-width="1" fill="none" fill-rule="evenodd">
        <polygon id="earth-outline-copy" fill="#CCE6F1" points="17.8025863 60.0757894 2.8334088 95.9172722 0.741210938 112.623692 10.2806369 164.704173 22.0597875 182.779748 48.5494647 209.860974 65.6242517 220.506497 73.0561523 223.449304 113.957471 235.847656 163.4824 232.924325 194.204371 222.403448 235.914213 191.666597 257.949348 154.136554 263.741211 121.370315 263.229657 103.292792 247.497939 60.2218586 233.571028 42.7753551 203.464071 19.4432373 189.238275 12.3637508 168.178349 4.98238798 125.104364 0.84765625 109.556575 1.56047387 78.08739 11.4990212 55.8146793 22.6002793 40.4642313 33.6820614"></polygon>
        <polygon id="shard-1" fill="#A1C276" points="65.828125 17.7929688 18.6835938 84.734375 78.859375 33.0742188"></polygon>
        <polygon id="shard-2" fill="#6C8649" points="78.9160156 32.7548828 64.2978516 70.0966797 44.7832031 62.2841797"></polygon>
        <polygon id="shard-3" fill="#90B165" points="77.6777344 35.6679688 101.25 66.5761719 64.2675781 69.7226562"></polygon>
        <polygon id="shard-4" fill="#AED180" points="45.2597656 62.2041016 118.392578 90.7011719 59.2099609 95.5107422"></polygon>
        <polygon id="shard-5" fill="#A1C276" points="64.0478516 69.6835938 117.68457 64.9189453 104.432617 85.1796875"></polygon>
        <polygon id="shard-6" fill="#AED180" points="117.105469 65.6552734 119.275391 81.328125 103.87793 85.4160156"></polygon>
        <polygon id="shard-7" fill="#6C8649" points="116.892578 65.3945313 118.991211 90.2041016 148.775391 43.8574219"></polygon>
        <polygon id="shard-8" fill="#A1C276" points="119.237305 90.3076172 117.68457 125.059082 56.5058594 95.5966797"></polygon>
        <polygon id="shard-9" fill="#90B165" points="118.958984 94.4511719 165.556641 102.157227 117.424805 125.136719"></polygon>
        <polygon id="shard-10" fill="#6C8649" points="119.848633 90.1074219 128.418945 96.1030273 165.221191 102.06543"></polygon>
        <polygon id="shard-11" fill="#90B165" points="148.036133 45.0844727 122.442383 84.6269531 128.797363 92.7514648"></polygon>
        <polygon id="shard-12" fill="#AED180" points="128.67041 92.7412109 148.632812 43.4892578 176.860352 50.6611328"></polygon>
        <polygon id="shard-13" fill="#A1C276" points="128.783203 92.6767578 164.229492 101.871094 169.873047 56.5947266"></polygon>
        <polygon id="shard-14" fill="#6C8649" points="164.429688 102.609375 172.979492 125.435547 148.27832 110.326172"></polygon>
        <polygon id="shard-15" fill="#A1C276" points="174.239258 136.517578 192.222656 128.882812 192.971191 136.902832"></polygon>
        <polygon id="shard-16" fill="#6C8649" points="77.9912109 36.4179688 100.841797 39.7519531 97.3867188 62.1826172"></polygon>
        <polygon id="shard-17" fill="#90B165" points="148.938477 43.8154297 114.038086 34.2998047 126.459961 59.0644531"></polygon>
        <polygon id="shard-18" fill="#6C8649" points="122.213867 36.6918945 155.912109 21.1845703 172.942383 50.1328125"></polygon>
        <polygon id="shard-19" fill="#AED180" points="152.809082 22.6772461 125.712891 11.8457031 123.164062 36.3203125"></polygon>
        <polygon id="shard-20" fill="#6C8649" points="117.503906 124.911621 80.1958008 137.658203 56.9057617 95.6269531"></polygon>
        <polygon id="shard-21" fill="#90B165" points="59.6513672 100.556152 63.8725586 133.526855 80.3803711 137.520508"></polygon>
        <polygon id="shard-22" fill="#A1C276" points="63.9013672 133.594238 90.4560547 164.722656 80.3085938 137.324219"></polygon>
        <polygon id="shard-23" fill="#AED180" points="80.7929688 137.693848 109.867188 168.75293 121.024902 122.98877"></polygon>
        <polygon id="shard-24" fill="#90B165" points="110.024902 168.632812 168.494141 175.621582 117.369141 137.175293"></polygon>
        <polygon id="shard-25" fill="#6C8649" points="132.480957 148.680664 153.845215 137.756836 155.310547 165.960938"></polygon>
        <polygon id="shard-26" fill="#AED180" points="168.272461 175.649414 183.919922 193.785156 209.084473 174.683594"></polygon>
        <polygon id="shard-27" fill="#A1C276" points="184.012695 193.900391 164.974609 233.413086 197.892578 224.405273"></polygon>
        <polygon id="shard-28" fill="#90B165" points="183.364258 193.664062 209.259766 174.449219 197.897461 224.571289"></polygon>
        <polygon id="shard-29" fill="#6C8649" points="198.102539 223.682617 239.810547 186.1875 208.75 174.987305"></polygon>
        <polygon id="shard-30" fill="#AED180" points="208.811523 175.582031 254.287109 156.00293 239.80957 186.597656"></polygon>
        <polygon id="Path-5" fill="#68498E" points="137 75.7246094 138.5625 63 144.035156 75.9667969"></polygon>
        <polygon id="Path-6" fill="#684A8D" points="84 111.050781 86.0214844 100 89.453125 110.966797"></polygon>
        <polygon id="Path-7" fill="#684A8D" points="64.3007812 100.203085 66.033934 91 69.7539062 100.494141"></polygon>
        <polygon id="Path-61" fill="#432668" points="82 120.182506 83.528021 111 87.453125 120.494141"></polygon>
    </g>
</svg>