<svg viewBox="0 0 465 258" xmlns="http://www.w3.org/2000/svg"><g fill="none" fill-rule="evenodd"><path fill="#2D354A" d="M135.438 25.238l-75.53 120.424 258.96 40.037z"/><path fill="#64646E" d="M236.566 77.807L179 64.154l111.037 98.98z"/><path d="M.36 144.95l322.972 43.609-295.847 8.066L.36 144.949z" fill="#93AFF8"/><path fill="#2D354A" d="M236.327 77.652l71.496 114.485 30.23-106.727z"/><path fill="#64646E" d="M236.685 78.02l69.963-64.917 55.797 75.641z"/><path fill="#EBE5E7" d="M198.913 180.295l41.258 77.562 87.782-58.471z"/><path fill="#AEA8AA" d="M198.635 180.248l32.102-23.092 96.192 42.239z"/><path fill="#EBE5E7" d="M251.618 166.312l20.364-44.24 56.301 78.198z"/><path fill="#AEA8AA" d="M271.724 121.778l117.568 87.257-61.744-9.207z"/><path fill="#2D354A" d="M363.367 6.343l-31.115 97.079 73.363-16.686z"/><path fill="#EBE5E7" d="M310.925 74.233l-13.99 66.777 42.332 31.792z"/><path fill="#AEA8AA" d="M311.063 74.752l42.67 16.614-14.49 81.124z"/><path fill="#64646E" d="M352.861 91.264l41.058-3.326-54.526 83.829zM464.03 197.457l-101-191.455 79.79 75.697z"/><path fill="#EBE5E7" d="M394.077 87.402l-54.74 84.541 49.774 37.177z"/><path d="M410.81 79.204l-21.83 129.928s75.68-11.484 74.569-11.484c-1.112 0-52.74-118.444-52.74-118.444z" fill="#EBE5E7"/><path fill="#AEA8AA" d="M363.35 6.278l-18.637 7.984L332.102.908z"/><path fill="#64646E" d="M345.034 14.187l-1.779 54.887 20.55-63.204z"/><path fill="#AEA8AA" d="M393.98 87.5l16.902-8.358-21.745 130.166z"/><path d="M345.137 14.182l-32.196 8.562 30.314 46.298 1.882-54.86z" fill="#2D354A"/><path fill="#64646E" d="M345.372 14.057L332.352.962 312.895 22.89z"/><path d="M146.286 174.554c46.754 41.098 93.923 82.962 93.923 82.962l-78.934-148.813-16.76 64.295s-44.983-39.542 1.77 1.556z" fill="#AEA8AA"/><path fill="#64646E" d="M161.24 108.795l-60.695 46.527 44.572 18.123z"/><path fill="#AEA8AA" d="M145.26 172.932l-40.955 43.619-3.269-61.667z"/><path fill="#EBE5E7" d="M145.07 172.742l-41.217 43.294 136.456 41.297z"/><path fill="#64646E" d="M101.128 154.865l-96.163 75.16 99.71-13.27z"/><path fill="#E91A5F" d="M217 151l4.574 21.873 2.112-19.428z"/><path d="M308 97s2.408 14.39 2.408 11.298c0-3.093 1.436-9.78 1.436-9.78L308 97z" fill="#259224"/><path d="M326.232 82.085L325 71l3.77 1.556-2.538 9.529z" fill="#E3E256"/><path fill="#64646E" d="M135.582 25.082L24.664 126.532l35.559 19.277z"/></g></svg>