<svg viewBox="0 0 500 300" xmlns="http://www.w3.org/2000/svg"><g fill="none" fill-rule="evenodd"><path fill="#2D354A" d="M156.438 53.238l-75.53 120.424 258.96 40.037z"/><path fill="#64646E" d="M257.566 105.807L200 92.154l111.037 98.98z"/><path d="M21.36 172.95l322.972 43.609-295.847 8.066-27.126-51.676z" fill="#93AFF8"/><path fill="#2D354A" d="M257.327 105.652l71.496 114.485 30.23-106.727z"/><path fill="#64646E" d="M257.685 106.02l69.963-64.917 55.797 75.641z"/><path fill="#EBE5E7" d="M219.913 208.295l41.258 77.562 87.782-58.471z"/><path fill="#AEA8AA" d="M219.635 208.248l32.102-23.092 96.192 42.239z"/><path fill="#EBE5E7" d="M272.618 194.312l20.364-44.24 56.301 78.198z"/><path fill="#AEA8AA" d="M292.724 149.778l117.568 87.257-61.744-9.207z"/><path fill="#2D354A" d="M384.367 34.343l-31.115 97.079 73.363-16.686z"/><path fill="#EBE5E7" d="M331.925 102.233l-13.99 66.777 42.332 31.792z"/><path fill="#AEA8AA" d="M332.063 102.752l42.67 16.614-14.49 81.124z"/><path fill="#64646E" d="M373.861 119.264l41.058-3.326-54.526 83.829zM485.03 225.457l-101-191.455 79.79 75.697z"/><path fill="#EBE5E7" d="M415.077 115.402l-54.74 84.541 49.774 37.177z"/><path d="M431.81 107.204l-21.83 129.928s75.68-11.484 74.569-11.484c-1.112 0-52.74-118.444-52.74-118.444z" fill="#EBE5E7"/><path fill="#AEA8AA" d="M384.35 34.278l-18.637 7.984-12.611-13.354z"/><path fill="#64646E" d="M366.034 42.187l-1.779 54.887 20.55-63.204z"/><path fill="#AEA8AA" d="M414.98 115.5l16.902-8.358-21.745 130.166z"/><path d="M366.137 42.182l-32.196 8.562 30.314 46.298 1.882-54.86z" fill="#2D354A"/><path fill="#64646E" d="M366.372 42.057l-13.02-13.095-19.457 21.929z"/><path d="M167.286 202.554c46.754 41.098 93.923 82.962 93.923 82.962l-78.934-148.813-16.76 64.295s-44.983-39.542 1.77 1.556z" fill="#AEA8AA"/><path fill="#64646E" d="M182.24 136.795l-60.695 46.527 44.572 18.123z"/><path fill="#AEA8AA" d="M166.26 200.932l-40.955 43.619-3.269-61.667z"/><path fill="#EBE5E7" d="M166.07 200.742l-41.217 43.294 136.456 41.297z"/><path fill="#64646E" d="M122.128 182.865l-96.163 75.16 99.71-13.27z"/><path fill="#E91A5F" d="M238 179l4.574 21.873 2.112-19.428z"/><path d="M329 125s2.408 14.39 2.408 11.298c0-3.093 1.436-9.78 1.436-9.78L329 125z" fill="#259224"/><path d="M347.232 110.085L346 99l3.77 1.556-2.538 9.529z" fill="#E3E256"/><path fill="#64646E" d="M156.582 53.082L45.664 154.532l35.559 19.277z"/></g></svg>