<svg viewBox="0 0 500 300" xmlns="http://www.w3.org/2000/svg"><g fill="none" fill-rule="evenodd"><path fill="#E5DED9" d="M225.355 35.926l10.649 8.908-4.815 29.17z"/><path fill="#C1B8AE" d="M246.517 47.727l21.085 15.943 10.06 105.849-23.674-81.9z"/><path fill="#C1B8AE" d="M236.074 45.371l-4.824 29.7 23.222 12.987z"/><path fill="#7D7771" d="M226.349 42.676l-5.131 27.486 10.158 6.282z"/><path fill="#7D7771" d="M221.728 70.291l1.303 84.162-26.191-24.534z"/><path fill="#3E3D3D" d="M221.57 69.874L254.11 87.6l-31.8 66.25z"/><path fill="#7D7771" d="M236.173 45.67l11.727 2.758 6.452 39.361z"/><path fill="#7D7771" d="M254.248 86.98l23.322 81.88-87.045 51.566z"/><path fill="#3E3D3D" d="M268 67l8.594.565 1.169 102.489z"/><path fill="#E5DED9" d="M277.15 73.176l72.538 83.517-45.673 23.666z"/><path fill="#C3BAB0" d="M276.692 70.235l1.063 98.9 26.365 11.872z"/><path fill="#C3BAB0" d="M348.938 156.374l17.41 51.064-62.796-26.81z"/><path fill="#7D7771" d="M278.197 168.578l26.069 12.104-104.036 87.384z"/><path fill="#C3BAB0" d="M278.465 168.318l-165.33 98.115 88.134 1.175z"/><path fill="#3E3D3D" d="M304.325 180.432l-103.35 87.18 105.65-16.489z"/><path fill="#7D7771" d="M304.382 180.864l2.223 70.482 130.692 41.928z"/><path fill="#E5DED9" d="M304.222 180.652l86.698 37.368-25.643 14.029z"/><path fill="#C3BAB0" d="M364.907 232.354l71.882 60.769-46.313-75.206z"/><path fill="#3E3D3D" d="M222.848 153.808l-31.978 66.797 6.131-91.393z"/><path fill="#7D7771" d="M196.074 146.892l-26.282 36.376 21.393 36.774z"/><path fill="#C3BAB0" d="M170.208 183.166L68.387 272.281l122.686-52.832z"/><path fill="#7D7771" d="M191.759 219.44L69.212 271.66l45.387-5.307z"/><path fill="#E5DED9" d="M197.516 30.988l-14.688-6.797 1.983 6.409zm12.16-4.373l7.556-2.963-2.98 4.205z"/><path fill="#C3BAB0" d="M115.365 19.95l-8.039 3.091 15.447 1.371z"/></g></svg>