<svg viewBox="0 0 263 235" xmlns="http://www.w3.org/2000/svg"><path fill-opacity=".5" fill="#B3DEF1" d="M17.902 59.951L3.004 95.465.922 112.018l9.494 51.603 11.722 17.91 26.363 26.834 16.993 10.548 7.397 2.915 40.705 12.285 49.288-2.896 30.575-10.425 41.51-30.455 21.93-37.186 5.764-32.467-.509-17.912-15.656-42.676-13.86-17.287-29.964-23.118-14.157-7.015-20.96-7.314-42.867-4.096-15.474.706-31.318 9.847-22.166 11-15.277 10.98z"/><path fill="#90B165" d="M77.846 14.162v66.352l32.408-18.233z"/><path fill="#AED180" d="M77.973 21.607L39.613 72.9l38.36 7.405z"/><path fill="#A1C276" d="M77.654 14.703l32.253 48.2 15.22-26.731z"/><path fill="#AED180" d="M111.327.865l-33.806 13.78 46.763 21.274z"/><path fill="#A1C276" d="M77.997 80.168l-16.322 29.91-22.161-37.301z"/><path fill="#90B165" d="M78.16 80.146l26.812 15.096-43.27 14.488z"/><path fill="#A1C276" d="M61.987 109.963l57.96 30.349-29.997-40.41zm16.378-29.43l59.196-34.666-15.124 58.51z"/><path fill="#AED180" d="M137.43 45.523l30.523 24.793-48.076 44.975zm1.59-14.939l16.953-15.195 9.293 13.654z"/><path fill="#90B165" d="M142.81 30.37l16.586 12.675 13.848-14.912z"/><path fill="#AED180" d="M120.396 139.906l47.75 7.924 10.592 31.318z"/><path fill="#A1C276" d="M120.795 139.791l54.844 36.959-35.297 37.79z"/><path fill="#90B165" d="M121.406 141.195l-23.094 44.8 42.006 28.37z"/><path fill="#AED180" d="M175.498 176.291l-54.3 57.822 21.19-.869z"/><path fill="#A1C276" d="M174.705 177.508l-9.648 49.605-24.385 7.682z"/><path fill="#90B165" d="M174.91 176.833l30.309 14.65-40.639 35.492z"/><path fill="#AED180" d="M179.867 7.28l59.44 45.58-33.568 2.084z"/><path fill="#90B165" d="M239.064 52.326L214.86 74.1l13.37 16.162z"/><path fill="#A1C276" d="M228.252 89.722l-27.262.04 18.233 25.46zm25.445-4.514l7.966 49.23L233.1 105.84z"/><path fill="#AED180" d="M261.767 134.251l-26.971 20.532-1.464-49.14z"/><path fill="#90B165" d="M261.523 134.53l-17.93 39.683-8.682-19.841z"/><path fill="#A1C276" d="M243.905 173.91l-26.097 28.937L235 154.096z"/><path fill="#AED180" d="M232.035 77.332l18.916-5.195-12.21-19.646z"/></svg>