<svg viewBox="0 0 174 292" xmlns="http://www.w3.org/2000/svg"><path fill="#666A2F" d="M82.746 2.494L89.674.512l-4.465 14.224z"/><path fill="#9EB275" d="M85.22 14.568L71.587 30.674l13.956 51.942z"/><path fill="#DBEBB8" d="M85.373 14.27l.337 69.273 13.725 48.35z"/><path fill="#353E0D" d="M85.378 14.497l10.547 1.05 3.028 113.38z"/><path fill="#666A2F" d="M95.965 20.88l7.368 14.874-6.016 34.96z"/><path fill="#9EB275" d="M97.406 69.405l19.47 41.317-17.97 19.323z"/><path fill="#353E0D" d="M102.504 40.035l-5.062 29.65 8.464 17.29zm3.746 114.441l-7.111 60.574L71.8 151.753zm10.868-43.706l-18.281 19.105 24.328 11.581z"/><path fill="#666A2F" d="M99.306 129.599l7.038 25.328-40.219-2.853z"/><path fill="#9EB275" d="M99.203 130.144l6.704 24.61 17.563-13.492z"/><path fill="#DBEBB8" d="M54.92 60.749l9.53 55.604L8.118 148.18z"/><path d="M106.087 154.946l18.737 77.458S94.15 247.827 94.15 246.096c0-1.732 11.938-91.15 11.938-91.15zM72.22 32.328L56.163 67.37l14.127 84.822z" fill="#666A2F"/><path fill="#353E0D" d="M72.042 32.414l-1.796 117.888 15.14-68.029z"/><path fill="#9EB275" d="M85.304 81.792l13.918 49.026-30.634 20.698z"/><path fill="#DBEBB8" d="M70.09 152.022l17.326-2.493-18.992-12.221z"/><path fill="#9EB275" d="M.903 151.143l65.011-35.7 4.685 36.475zm69.756.497l17.118 139.785-.482-142.198z"/><path fill="#353E0D" d="M70.696 151.522H50.049L30.152 222.61z"/><path fill="#666A2F" d="M50.3 151.448l-20.14 71.095-29.144-71.929z"/><path fill="#DBEBB8" d="M70.724 151.455l-40.658 71.062 57.565 67.233z"/><path fill="#666A2F" d="M87.244 158.608l11.117 5.13-10.469 127.19z"/><path fill="#DBEBB8" d="M87.97 290.379l18.345-16.058-10.122-84.587z"/><path fill="#353E0D" d="M105.988 154.664l17.462-14 1.297 92.004z"/><path fill="#9EB275" d="M124.764 232.82l11.329-45.232-12.556-34.142z"/><path fill="#666A2F" d="M136.103 187.492l-11.47 44.583 22.062-34.113z"/><path fill="#9EB275" d="M146.554 197.765l-1.483 67.872 18.716 11.918z"/><path fill="#353E0D" d="M146.526 197.93l-22.005 34.378 21.319 4.398z"/><path fill="#666A2F" d="M146.584 197.924l17.176 79.637L175 260z"/></svg>