<svg viewBox="0 0 198 292" xmlns="http://www.w3.org/2000/svg"><path fill="#666A2F" d="M93.102 2.494l7.877-1.982-5.077 14.224z"/><path fill="#9EB275" d="M95.915 14.568L80.413 30.674l15.87 51.942z"/><path fill="#DBEBB8" d="M96.089 14.27l.383 69.273 15.606 48.35z"/><path fill="#353E0D" d="M96.094 14.497l11.993 1.05 3.443 113.38z"/><path fill="#666A2F" d="M108.132 20.88l8.379 14.874-6.84 34.96z"/><path fill="#9EB275" d="M109.77 69.405l22.14 41.317-20.433 19.323z"/><path fill="#353E0D" d="M115.568 40.035l-5.755 29.65 9.623 17.29zm4.259 114.441l-8.086 60.574-31.084-63.297zm12.357-43.706l-20.786 19.105 27.662 11.581z"/><path fill="#666A2F" d="M111.931 129.599l8.003 25.328-45.731-2.853z"/><path fill="#9EB275" d="M111.814 130.144l7.624 24.61 19.97-13.492z"/><path fill="#DBEBB8" d="M61.463 60.749L72.3 116.353 8.245 148.18z"/><path d="M119.642 154.946l21.305 77.458s-34.879 15.423-34.879 13.692c0-1.732 13.574-91.15 13.574-91.15zM81.133 32.328L62.876 67.37l16.062 84.822z" fill="#666A2F"/><path fill="#353E0D" d="M80.93 32.414l-2.04 117.888 17.216-68.029z"/><path fill="#9EB275" d="M96.01 81.792l15.826 49.026-34.833 20.698z"/><path fill="#DBEBB8" d="M78.712 152.022l19.7-2.493-21.595-12.221z"/><path fill="#9EB275" d="M.042 151.143l73.921-35.7 5.327 36.475zm79.316.497l19.465 139.785-.549-142.198z"/><path fill="#353E0D" d="M79.4 151.522H55.923L33.3 222.61z"/><path fill="#666A2F" d="M56.21 151.448l-22.902 71.095L.17 150.614z"/><path fill="#DBEBB8" d="M79.432 151.455l-46.23 71.062 65.454 67.233z"/><path fill="#666A2F" d="M98.216 158.608l12.641 5.13-11.904 127.19z"/><path fill="#DBEBB8" d="M99.042 290.379l20.86-16.058-11.51-84.587z"/><path fill="#353E0D" d="M119.53 154.664l19.855-14 1.475 92.004z"/><path fill="#9EB275" d="M140.879 232.82l12.881-45.232-14.276-34.142z"/><path fill="#666A2F" d="M153.772 187.492l-13.042 44.583 25.086-34.113z"/><path fill="#9EB275" d="M165.655 197.765l-1.686 67.872 21.281 11.918z"/><path fill="#353E0D" d="M165.624 197.93l-25.021 34.378 24.24 4.398z"/><path fill="#666A2F" d="M165.69 197.924l19.53 79.637L198 260z"/></svg>