<svg width="355" height="74" viewBox="61 11 355 74" xmlns="http://www.w3.org/2000/svg"><g fill="none" fill-rule="evenodd"><path d="M388.263 67H396V11H63v56h31.883l16.88-7.576 14.326 3.982 64.29-39.295 7.238 4.877 11.457-16.826 13.35 11.123 6.414-3.656 24.001 26.08 7.481-11.82s1.913-4.31 5-4.31c3.085 0 16.934 9.08 20.738 9.08 3.804 0 17.696 15.607 17.696 15.607l13.326-14.063s5.98 8.207 10.851 8.207c4.87 0 22.5 8.272 22.5 8.272l13 .173 15.611 9.405 9.221.74z" fill="#FFFFFA"/><path d="M69 66c7.257-2.625 24.773-9.082 27.914-11.363 3.983-2.893 16.5-8.248 16.5-8.248s6.99 2.068 10.254 2.068c3.264 0 12.473-2.113 12.473-2.113l10.131 3.614-20.12 12.298-14.326-3.983L95.573 66H69zm322.935 0c-2.522-2.075-14.335-11.71-16.181-11.71-2.068 0-9.512-4.66-9.512-4.66l-7.27-7.466-6.376 5.877-9.482 4.21c4.111 1.747 7.38 3.28 7.38 3.28l13 .174 15.61 9.404 4.559.891h8.272zM242.417 33.165l4.382-5.563S258.643 16 261.232 16c2.59 0 9.055 8.14 11.623 8.14 2.569 0 13.542-.673 13.542-.673s6.119 7.861 9.164 9.883c2.244 1.49 8.676 11.012 11.903 15.916l-3.648 3.85s-13.892-15.608-17.696-15.608c-3.803 0-17.652-9.08-20.738-9.08-3.086 0-5 4.31-5 4.31l-7.48 11.82-10.485-11.393z" fill="#B9B2B2"/></g></svg>