<svg viewBox="0 0 362 275" xmlns="http://www.w3.org/2000/svg"><path fill="#666A2F" fill-rule="evenodd" d="M196.469 136.497l3.394 129.5-67.71-56.825z"/><path fill="#9EB275" fill-rule="evenodd" d="M195.895 138.652l3.703 126.239 62.39-41.529z"/><path fill="#7CA3E7" fill-rule="evenodd" d="M.707 213.55l127.5 13.817 25.191 35.113z"/><path fill="#353E0D" fill-rule="evenodd" d="M195.557 138.86l-7.909-49.878-55.058 119.936z"/><path fill="#666A2F" fill-rule="evenodd" d="M188.023 90.447L131.38 113.43l.965 96.83z"/><path fill="#9EB275" fill-rule="evenodd" d="M131.775 113.541l-19.89 5.705 20.502 90.662z"/><path fill="#353D0C" fill-rule="evenodd" d="M132.832 209.63l-75.197-36.394 54.97-53.507z"/><path fill="#9EB275" fill-rule="evenodd" d="M58.375 172.385l-50.027 10.39 124.761 26.69z"/><path fill="#353E0D" fill-rule="evenodd" d="M131.66 113.375l81.164-30.484L156.84 67z"/><path fill="#9EB275" fill-rule="evenodd" d="M211.254 82.442l-34.457-24.317-19.41 9.15z"/><path fill="#666A2F" fill-rule="evenodd" d="M176.97 58.244l34.385 24.504-10.992-51.313z"/><path fill="#9EB275" fill-rule="evenodd" d="M200.06 32.25l72.419 4.945-61.55 45.433z"/><path fill="#DBEBB8" fill-rule="evenodd" d="M199.727 32.344l38.931-25.078 32.969 29.763z"/><path fill="#9EB275" fill-rule="evenodd" d="M238.722 7.8l22.91-7.8 4.113 31.86z"/><path fill="#DBEBB8" fill-rule="evenodd" d="M272.535 37.143l-63.688 46.902 63.688-18.689z"/><path fill="#DBEBB8" fill-rule="evenodd" d="M272.48 64.072l11.944 8.564-33.252 86.29z"/><path fill="#9EB275" fill-rule="evenodd" d="M272.795 63.72l-21.133 94.75-56.082-19.7z"/><path fill="#666A2F" fill-rule="evenodd" d="M273.26 64.018l-77.94 75.623-7.591-49.1z"/><path fill="#9EB275" fill-rule="evenodd" d="M283.906 72.648l28.024 26.413-61.35 60.392z"/><path fill="#DBEBB8" fill-rule="evenodd" d="M250.287 158.883l62.178-60.74 13.668 45.681z"/><path fill="#9EB275" fill-rule="evenodd" d="M249.625 158.62l76.564-15.247 34.858 88.2z"/><path fill="#666A2F" fill-rule="evenodd" d="M251.086 159.56l10.13 63.733 98.665 6.797z"/><path fill="#353E0D" fill-rule="evenodd" d="M195.654 138.543l65.779 85.208-10.478-65.542zM39.664 182L33 204.188l15.555.257z"/><path fill="#666A2F" fill-rule="evenodd" d="M32.664 188L26 210.188l15.555.257zm119.262 56L146 272.174l15.613 1.705z"/><path fill="#353E0D" fill-rule="evenodd" d="M116.87 201.89l-4.985 22.446 14.172-1.162z"/><path fill="#98BAF4" fill-rule="evenodd" d="M1.065 213.468l39.46 60.971 100.823-16.307z"/><path fill="#AE704A" fill-rule="evenodd" d="M53.864 253.672l18.748-5.206 1.39 5.206z"/><path fill="#8B644C" fill-rule="evenodd" d="M53.699 253.757L49 250.5l2.645 7.472z"/></svg>