<svg viewBox="0 0 500 300" xmlns="http://www.w3.org/2000/svg"><g fill="none" fill-rule="evenodd"><path fill="#666A2F" d="M251.469 154.497l3.394 129.5-67.71-56.825z"/><path fill="#9EB275" d="M250.895 156.652l3.703 126.239 62.39-41.529z"/><path fill="#7CA3E7" d="M55.707 231.55l127.5 13.817 25.191 35.113z"/><path fill="#353E0D" d="M250.557 156.86l-7.909-49.878-55.058 119.936z"/><path fill="#666A2F" d="M243.023 108.447L186.38 131.43l.965 96.83z"/><path fill="#9EB275" d="M186.775 131.541l-19.89 5.705 20.502 90.662z"/><path fill="#353D0C" d="M187.832 227.63l-75.197-36.394 54.97-53.507z"/><path fill="#9EB275" d="M113.375 190.385l-50.027 10.39 124.761 26.69z"/><path fill="#353E0D" d="M186.66 131.375l81.164-30.484L211.84 85z"/><path fill="#9EB275" d="M266.254 100.442l-34.457-24.317-19.41 9.15z"/><path fill="#666A2F" d="M231.97 76.244l34.385 24.504-10.992-51.313z"/><path fill="#9EB275" d="M255.06 50.25l72.419 4.945-61.55 45.433z"/><path fill="#DBEBB8" d="M254.727 50.344l38.931-25.078 32.969 29.763z"/><path fill="#9EB275" d="M293.722 25.8l22.91-7.8 4.113 31.86z"/><path fill="#DBEBB8" d="M327.535 55.143l-63.688 46.902 63.688-18.689z"/><path fill="#DBEBB8" d="M327.48 82.072l11.944 8.564-33.252 86.29z"/><path fill="#9EB275" d="M327.795 81.72l-21.133 94.75-56.082-19.7z"/><path fill="#666A2F" d="M328.26 82.018l-77.94 75.623-7.591-49.1z"/><path fill="#9EB275" d="M338.906 90.648l28.024 26.413-61.35 60.392z"/><path fill="#DBEBB8" d="M305.287 176.883l62.178-60.74 13.668 45.681z"/><path fill="#9EB275" d="M304.625 176.62l76.564-15.247 34.858 88.2z"/><path fill="#666A2F" d="M306.086 177.56l10.13 63.733 98.665 6.797z"/><path fill="#353E0D" d="M250.654 156.543l65.779 85.208-10.478-65.542zM94.664 200L88 222.188l15.555.257z"/><path fill="#666A2F" d="M87.664 206L81 228.188l15.555.257zm119.262 56L201 290.174l15.613 1.705z"/><path fill="#353E0D" d="M171.87 219.89l-4.985 22.446 14.172-1.162z"/><path fill="#98BAF4" d="M56.065 231.468l39.46 60.971 100.823-16.307z"/><path fill="#AE704A" d="M108.864 271.672l18.748-5.206 1.39 5.206z"/><path fill="#8B644C" d="M108.699 271.757L104 268.5l2.645 7.472z"/></g></svg>