<svg width="100%" height="100%" id="svg-tetons" viewBox="0 0 362 275" version="1.1" xmlns="http://www.w3.org/2000/svg" xmlns:xlink="http://www.w3.org/1999/xlink">
    <polygon id="shard-1" stroke="none" fill="#666A2F" fill-rule="evenodd" points="196.46875 136.49707 199.863281 265.996094 132.152344 209.171875"></polygon>
    <polygon id="shard-2" stroke="none" fill="#9EB275" fill-rule="evenodd" points="195.894531 138.652344 199.597656 264.890625 261.988281 223.362305"></polygon>
    <polygon id="shard-3" stroke="none" fill="#7CA3E7" fill-rule="evenodd" points="0.70703125 213.550781 128.207031 227.367188 153.398437 262.480469"></polygon>
    <polygon id="shard-4" stroke="none" fill="#353E0D" fill-rule="evenodd" points="195.556641 138.859375 187.648438 88.9824219 132.589844 208.917969"></polygon>
    <polygon id="shard-5" stroke="none" fill="#666A2F" fill-rule="evenodd" points="188.023438 90.4472656 131.378906 113.429688 132.34375 210.259766"></polygon>
    <polygon id="shard-6" stroke="none" fill="#9EB275" fill-rule="evenodd" points="131.775391 113.541016 111.884766 119.246094 132.386719 209.908203"></polygon>
    <polygon id="shard-7" stroke="none" fill="#353D0C" fill-rule="evenodd" points="132.832031 209.630859 57.6347656 173.236328 112.605469 119.728516"></polygon>
    <polygon id="shard-8" stroke="none" fill="#9EB275" fill-rule="evenodd" points="58.375 172.384766 8.34765625 182.775391 133.109375 209.464844"></polygon>
    <polygon id="shard-9" stroke="none" fill="#353E0D" fill-rule="evenodd" points="131.660156 113.375 212.824219 82.890625 156.839844 67"></polygon>
    <polygon id="shard-10" stroke="none" fill="#9EB275" fill-rule="evenodd" points="211.253906 82.4423828 176.796875 58.125 157.386719 67.2753906"></polygon>
    <polygon id="shard-11" stroke="none" fill="#666A2F" fill-rule="evenodd" points="176.970703 58.2441406 211.355469 82.7480469 200.363281 31.4345703"></polygon>
    <polygon id="shard-12" stroke="none" fill="#9EB275" fill-rule="evenodd" points="200.060547 32.25 272.478516 37.1953125 210.929688 82.6279297"></polygon>
    <polygon id="shard-13" stroke="none" fill="#DBEBB8" fill-rule="evenodd" points="199.726562 32.34375 238.658203 7.265625 271.626953 37.0292969"></polygon>
    <polygon id="shard-14" stroke="none" fill="#9EB275" fill-rule="evenodd" points="238.72168 7.80078125 261.632812 0 265.745117 31.8603516"></polygon>
    <polygon id="shard-15" stroke="none" fill="#DBEBB8" fill-rule="evenodd" points="272.535156 37.1425781 208.84668 84.0449219 272.535156 65.3564453"></polygon>
    <polygon id="shard-16" stroke="none" fill="#DBEBB8" fill-rule="evenodd" points="272.480469 64.0722656 284.423828 72.6357422 251.171875 158.925781"></polygon>
    <polygon id="shard-17" stroke="none" fill="#9EB275" fill-rule="evenodd" points="272.794922 63.7207031 251.662109 158.470703 195.580078 138.769531"></polygon>
    <polygon id="shard-18" stroke="none" fill="#666A2F" fill-rule="evenodd" points="273.259766 64.0175781 195.320312 139.640625 187.728516 90.5410156"></polygon>
    <polygon id="shard-19" stroke="none" fill="#9EB275" fill-rule="evenodd" points="283.90625 72.6484375 311.929687 99.0605469 250.579102 159.453125"></polygon>
    <polygon id="shard-20" stroke="none" fill="#DBEBB8" fill-rule="evenodd" points="250.287109 158.882812 312.464844 98.1425781 326.132812 143.824219"></polygon>
    <polygon id="shard-21" stroke="none" fill="#9EB275" fill-rule="evenodd" points="249.625 158.619141 326.189453 143.373047 361.046875 231.572266"></polygon>
    <polygon id="shard-22" stroke="none" fill="#666A2F" fill-rule="evenodd" points="251.085938 159.560547 261.216797 223.292969 359.880859 230.089844"></polygon>
    <polygon id="shard-23" stroke="none" fill="#353E0D" fill-rule="evenodd" points="195.654297 138.542969 261.432617 223.750977 250.955078 158.208984"></polygon>
    <polygon id="shard-24" stroke="none" fill="#353E0D" fill-rule="evenodd" points="39.6640625 182 33 204.1875 48.5546875 204.445312"></polygon>
    <polygon id="shard-25" stroke="none" fill="#666A2F" fill-rule="evenodd" points="32.6640625 188 26 210.1875 41.5546875 210.445312"></polygon>
    <polygon id="shard-26" stroke="none" fill="#666A2F" fill-rule="evenodd" points="151.925781 244 146 272.173828 161.613281 273.878906"></polygon>
    <polygon id="shard-27" stroke="none" fill="#353E0D" fill-rule="evenodd" points="116.86983 201.890625 111.884766 224.335938 126.056641 223.173919"></polygon>
    <polygon id="shard-28" stroke="none" fill="#98BAF4" fill-rule="evenodd" points="1.06542969 213.467773 40.5253906 274.439453 141.347656 258.131836"></polygon>
    <polygon id="shard-29" stroke="none" fill="#AE704A" fill-rule="evenodd" points="53.8642578 253.671711 72.6120605 248.466309 74.0019525 253.671711"></polygon>
    <polygon id="shard-30" stroke="none" fill="#8B644C" fill-rule="evenodd" points="53.6988118 253.757474 49 250.5 51.6447496 257.971924"></polygon>
</svg>
