<svg width="100%" height="100%" viewBox="0 0 500 300" version="1.1" xmlns="http://www.w3.org/2000/svg" xmlns:xlink="http://www.w3.org/1999/xlink">
    <g stroke="none" stroke-width="1" fill="none" fill-rule="evenodd">
        <polygon id="shard-1" fill="#2D354A" points="156.4375 53.2382812 80.9082031 173.662109 339.867188 213.699219"></polygon>
        <polygon id="shard-2" fill="#64646E" points="257.566406 105.806641 200 92.1542969 311.037109 191.134766"></polygon>
        <path d="M21.359375,172.949219 L344.332031,216.558594 L48.4853454,224.625 L21.359375,172.949219 Z" id="shard-3" fill="#93AFF8"></path>
        <polygon id="shard-4" fill="#2D354A" points="257.327148 105.652344 328.823242 220.136719 359.052734 113.410156"></polygon>
        <polygon id="shard-5" fill="#64646E" points="257.68457 106.02002 327.648438 41.1025391 383.445312 116.744141"></polygon>
        <polygon id="shard-6" fill="#EBE5E7" points="219.913086 208.294922 261.170898 285.857422 348.953125 227.385742"></polygon>
        <polygon id="shard-7" fill="#AEA8AA" points="219.634766 208.248047 251.737305 185.15625 347.928711 227.394531"></polygon>
        <polygon id="shard-8" fill="#EBE5E7" points="272.618164 194.311523 292.982422 150.072266 349.283203 228.269531"></polygon>
        <polygon id="shard-9" fill="#AEA8AA" points="292.723633 149.77832 410.291992 237.035156 348.547852 227.828125"></polygon>
        <polygon id="shard-10" fill="#2D354A" points="384.367188 34.3427734 353.251953 131.421875 426.614502 114.736084"></polygon>
        <polygon id="shard-11" fill="#EBE5E7" points="331.924805 102.233398 317.935547 169.009766 360.266602 200.801758"></polygon>
        <polygon id="shard-12" fill="#AEA8AA" points="332.063477 102.751953 374.732422 119.366211 360.243164 200.490234"></polygon>
        <polygon id="shard-13" fill="#64646E" points="373.861328 119.263672 414.918945 115.938477 360.392578 199.766602"></polygon>
        <polygon id="shard-14" fill="#64646E" points="485.029297 225.457031 384.03125 34.0019531 463.820312 109.699219"></polygon>
        <polygon id="shard-15" fill="#EBE5E7" points="415.077148 115.402344 360.336914 199.943359 410.11084 237.119873"></polygon>
        <path d="M431.80957,107.204102 L409.981445,237.131592 C409.981445,237.131592 485.661133,225.648438 484.549805,225.648438 C483.438477,225.648438 431.80957,107.204102 431.80957,107.204102 Z" id="shard-16" fill="#EBE5E7"></path>
        <polygon id="shard-17" fill="#AEA8AA" points="384.349609 34.2783203 365.712891 42.2617188 353.101562 28.9082031"></polygon>
        <polygon id="shard-18" fill="#64646E" points="366.03418 42.1865234 364.255371 97.0742188 384.805664 33.8701172"></polygon>
        <polygon id="shard-19" fill="#AEA8AA" points="414.979614 115.5 431.881592 107.142212 410.136963 237.307617"></polygon>
        <path d="M366.136719,42.1821289 L333.941406,50.7441406 L364.255127,97.0418701 L366.136719,42.1821289 Z" id="shard-20" fill="#2D354A"></path>
        <polygon id="shard-21" fill="#64646E" points="366.37207 42.0566406 353.351562 28.9619141 333.894531 50.890625"></polygon>
        <path d="M167.285928,202.553717 C214.039692,243.651919 261.209225,285.516113 261.209225,285.516113 L182.275391,136.703125 L165.515625,200.997559 C165.515625,200.997559 120.532163,161.455514 167.285928,202.553717 Z" id="shard-22" fill="#AEA8AA"></path>
        <polygon id="shard-23" fill="#64646E" points="182.240234 136.794922 121.544922 183.322266 166.117188 201.445312"></polygon>
        <polygon id="shard-24" fill="#AEA8AA" points="166.260254 200.931641 125.304688 244.550781 122.036133 182.883789"></polygon>
        <polygon id="shard-25" fill="#EBE5E7" points="166.070312 200.741699 124.852539 244.036112 261.308594 285.333008"></polygon>
        <polygon id="shard-26" fill="#64646E" points="122.12793 182.865234 25.9648438 258.025391 125.674805 244.754883"></polygon>
        <polygon id="shard-27" fill="#E91A5F" points="238 179 242.574219 200.873047 244.685547 181.445312"></polygon>
        <path d="M329,125 C329,125 331.408203,139.390625 331.408203,136.297852 C331.408203,133.205078 332.84375,126.518555 332.84375,126.518555 L329,125 Z" id="shard-28" fill="#259224"></path>
        <path d="M347.232422,110.084961 L346,99 L349.769531,100.555664 L347.232422,110.084961 Z" id="shard-29" fill="#E3E256"></path>
        <polygon id="shard-30" fill="#64646E" points="156.582031 53.0820312 45.6640625 154.53125 81.2226562 173.808594"></polygon>
    </g>
</svg>