<svg viewBox="0 0 263 235" version="1.1" xmlns="http://www.w3.org/2000/svg" xmlns:xlink="http://www.w3.org/1999/xlink">
    <polygon id="Path-63" fill-opacity="0.5" fill="#B3DEF1" points="17.90159 59.951293 3.00405903 95.4645069 0.921875 112.017914 10.4156427 163.621395 22.1384151 181.531417 48.5013056 208.364609 65.494368 218.91263 72.8906975 221.828484 113.596251 234.113281 162.884141 231.216724 193.459068 220.792208 234.969276 190.336872 256.898945 153.150564 262.663086 120.684427 262.153981 102.772475 246.497558 60.0960244 232.637306 42.8093119 202.674449 19.6908908 188.516741 12.6762447 167.557614 5.3624871 124.689792 1.265625 109.216419 1.97191399 77.8978544 11.8194351 55.7317468 22.8190177 40.4547702 33.7993028"></polygon>
    <polygon id="shard-25" fill="#90B165" points="77.8457031 14.1621094 77.8457031 80.5136719 110.253906 62.28125"></polygon>
    <polygon id="shard-24" fill="#AED180" points="77.9726562 21.6074219 39.6132812 72.9003906 77.9726562 80.3046875"></polygon>
    <polygon id="shard-23" fill="#A1C276" points="77.6542969 14.703125 109.907227 62.9023438 125.126953 36.171875"></polygon>
    <polygon id="shard-22" fill="#AED180" points="111.327148 0.865234375 77.5209961 14.6445312 124.28418 35.9189453"></polygon>
    <polygon id="shard-21" fill="#A1C276" points="77.9970703 80.168457 61.6748047 110.077637 39.5136719 72.7768555"></polygon>
    <polygon id="shard-20" fill="#90B165" points="78.1601562 80.1459961 104.97168 95.2416992 61.7026367 109.730469"></polygon>
    <polygon id="shard-19" fill="#A1C276" points="61.9873047 109.963379 119.946289 140.312012 89.9501953 99.902832"></polygon>
    <polygon id="shard-18" fill="#A1C276" points="78.3652344 80.5332031 137.560547 45.8671875 122.4375 104.376953"></polygon>
    <polygon id="shard-17" fill="#AED180" points="137.429688 45.5234375 167.953125 70.3164062 119.876953 115.291016"></polygon>
    <polygon id="shard-16" fill="#AED180" points="139.019531 30.5839844 155.972656 15.3886719 165.265625 29.0429688"></polygon>
    <polygon id="shard-15" fill="#90B165" points="142.810547 30.3691406 159.396484 43.0449219 173.244141 28.1328125"></polygon>
    <polygon id="shard-14" fill="#AED180" points="120.396484 139.90625 168.146484 147.830078 178.738281 179.148438"></polygon>
    <polygon id="shard-13" fill="#A1C276" points="120.794922 139.791016 175.638672 176.75 140.341797 214.539062"></polygon>
    <polygon id="shard-12" fill="#90B165" points="121.40625 141.195312 98.3125 185.994141 140.318359 214.365234"></polygon>
    <polygon id="shard-11" fill="#AED180" points="175.498047 176.291016 121.197266 234.113281 142.388672 233.244141"></polygon>
    <polygon id="shard-10" fill="#A1C276" points="174.705078 177.507812 165.056641 227.113281 140.671875 234.794922"></polygon>
    <polygon id="shard-9" fill="#90B165" points="174.910156 176.833008 205.21875 191.482422 164.580078 226.974609"></polygon>
    <polygon id="shard-8" fill="#AED180" points="179.867188 7.28027344 239.306641 52.8603516 205.739258 54.9443359"></polygon>
    <polygon id="shard-7" fill="#90B165" points="239.064453 52.3261719 214.859375 74.0996094 228.229492 90.2617188"></polygon>
    <polygon id="shard-6" fill="#A1C276" points="228.251953 89.7216797 200.990234 89.7626953 219.222656 115.22168"></polygon>
    <polygon id="shard-5" fill="#A1C276" points="253.697266 85.2080078 261.663086 134.4375 233.099609 105.839844"></polygon>
    <polygon id="shard-4" fill="#AED180" points="261.766602 134.250977 234.795898 154.783203 233.332031 105.642578"></polygon>
    <polygon id="shard-3" fill="#90B165" points="261.523438 134.530273 243.59375 174.212891 234.911133 154.371582"></polygon>
    <polygon id="shard-2" fill="#A1C276" points="243.905273 173.910156 217.807617 202.84668 235.000977 154.095703"></polygon>
    <polygon id="shard-1" fill="#AED180" points="232.035156 77.3320312 250.951172 72.1367188 238.741211 52.4912109"></polygon>
</svg>