<svg viewBox="0 0 174 292" version="1.1" xmlns="http://www.w3.org/2000/svg" xmlns:xlink="http://www.w3.org/1999/xlink">
    <polygon id="rock-30" fill="#666A2F" points="82.7460938 2.49414062 89.6738281 0.51171875 85.2089844 14.7363281"></polygon>
    <polygon id="rock-29" fill="#9EB275" points="85.2197266 14.5683594 71.5869141 30.6738281 85.5429688 82.6162109"></polygon>
    <polygon id="rock-28" fill="#DBEBB8" points="85.3728027 14.2702637 85.7099609 83.5429688 99.4345703 131.892578"></polygon>
    <polygon id="rock-27" fill="#353E0D" points="85.3776855 14.4973145 95.9248047 15.546875 98.953125 128.926758"></polygon>
    <polygon id="rock-26" fill="#666A2F" points="95.9648438 20.880127 103.333008 35.7539062 97.3173828 70.7148438"></polygon>
    <polygon id="rock-25" fill="#9EB275" points="97.4057617 69.4052734 116.875977 110.72168 98.90625 130.04541"></polygon>
    <polygon id="rock-24" fill="#353E0D" points="102.503906 40.034668 97.4423828 69.6855469 105.90625 86.9755859"></polygon>
    <polygon id="rock-23" fill="#353E0D" points="106.25 154.475586 99.1386719 215.049805 71.8007812 151.75293"></polygon>
    <polygon id="rock-22" fill="#353E0D" points="117.117676 110.770508 98.8369141 129.875488 123.164551 141.456055"></polygon>
    <polygon id="rock-21" fill="#666A2F" points="99.3056641 129.598633 106.34375 154.926758 66.125 152.074219"></polygon>
    <polygon id="rock-20" fill="#9EB275" points="99.2026367 130.144043 105.907227 154.754395 123.470215 141.261719"></polygon>
    <polygon id="rock-19" fill="#DBEBB8" points="54.9208984 60.7490234 64.4506836 116.353027 8.1171875 148.179688"></polygon>
    <path d="M106.087402,154.945801 L124.824219,232.404053 C124.824219,232.404053 94.1494141,247.827148 94.1494141,246.095703 C94.1494141,244.364258 106.087402,154.945801 106.087402,154.945801 Z" id="rock-18" fill="#666A2F"></path>
    <polygon id="rock-17" fill="#666A2F" points="72.2197266 32.328125 56.1630859 67.3701172 70.2895508 152.191895"></polygon>
    <polygon id="rock-16" fill="#353E0D" points="72.0419922 32.4140625 70.2460938 150.301758 85.3867188 82.2734375"></polygon>
    <polygon id="rock-15" fill="#9EB275" points="85.3037109 81.7919922 99.2216797 130.818359 68.5878906 151.515625"></polygon>
    <polygon id="rock-14" fill="#DBEBB8" points="70.0908203 152.022461 87.4155273 149.528809 68.4238281 137.307617"></polygon>
    <polygon id="rock-13" fill="#9EB275" points="0.903320312 151.142578 65.9140625 115.443359 70.5986328 151.917969"></polygon>
    <polygon id="rock-12" fill="#9EB275" points="70.6586914 151.640137 87.7773438 291.424805 87.2949219 149.226562"></polygon>
    <polygon id="rock-11" fill="#353E0D" points="70.6958008 151.522461 50.0488281 151.522461 30.1523438 222.609375"></polygon>
    <polygon id="rock-10" fill="#666A2F" points="50.3007812 151.448242 30.1591797 222.542969 1.015625 150.614258"></polygon>
    <polygon id="rock-9" fill="#DBEBB8" points="70.7236328 151.455078 30.0664062 222.516602 87.6308594 289.75"></polygon>
    <polygon id="rock-8" fill="#666A2F" points="87.2436523 158.608398 98.3613281 163.737305 87.8920898 290.928711"></polygon>
    <polygon id="rock-7" fill="#DBEBB8" points="87.9697266 290.378906 106.31543 274.321289 96.1933594 189.734375"></polygon>
    <polygon id="rock-6" fill="#353E0D" points="105.988037 154.663818 123.450195 140.663086 124.74707 232.667969"></polygon>
    <polygon id="rock-5" fill="#9EB275" points="124.763916 232.820801 136.092773 187.587891 123.537109 153.446045"></polygon>
    <polygon id="rock-4" fill="#666A2F" points="136.103271 187.492432 124.632812 232.075195 146.695068 197.96167"></polygon>
    <polygon id="rock-3" fill="#9EB275" points="146.553711 197.764648 145.071289 265.636719 163.787109 277.554688"></polygon>
    <polygon id="rock-2" fill="#353E0D" points="146.526123 197.929199 124.521484 232.307617 145.839844 236.706055"></polygon>
    <polygon id="rock-1" fill="#666A2F" points="146.584229 197.923828 163.760376 277.561279 175 260"></polygon>
</svg>