<svg viewBox="0 0 198 292" version="1.1" xmlns="http://www.w3.org/2000/svg" xmlns:xlink="http://www.w3.org/1999/xlink">
    <polygon id="rock-30" fill="#666A2F" points="93.1019976 2.49414062 100.97923 0.51171875 95.902446 14.7363281"></polygon>
    <polygon id="rock-29" fill="#9EB275" points="95.9146605 14.5683594 80.4133679 30.6738281 96.2822055 82.6162109"></polygon>
    <polygon id="rock-28" fill="#DBEBB8" points="96.0887169 14.2702637 96.4720852 83.5429688 112.077756 131.892578"></polygon>
    <polygon id="rock-27" fill="#353E0D" points="96.094269 14.4973145 108.086951 15.546875 111.530325 128.926758"></polygon>
    <polygon id="rock-26" fill="#666A2F" points="108.132477 20.880127 116.510504 35.7539062 109.670392 70.7148438"></polygon>
    <polygon id="rock-25" fill="#9EB275" points="109.770884 69.4052734 131.909639 110.72168 111.477026 130.04541"></polygon>
    <polygon id="rock-24" fill="#353E0D" points="115.567768 40.034668 109.812524 69.6855469 119.436429 86.9755859"></polygon>
    <polygon id="rock-23" fill="#353E0D" points="119.827292 154.475586 111.741303 215.049805 80.6565472 151.75293"></polygon>
    <polygon id="rock-22" fill="#353E0D" points="132.184465 110.770508 111.398187 129.875488 139.06011 141.456055"></polygon>
    <polygon id="rock-21" fill="#666A2F" points="111.931182 129.598633 119.933891 154.926758 74.2028571 152.074219"></polygon>
    <polygon id="rock-20" fill="#9EB275" points="111.814034 130.144043 119.437539 154.754395 139.407668 141.261719"></polygon>
    <polygon id="rock-19" fill="#DBEBB8" points="61.4631487 60.7490234 72.299063 116.353027 8.24463486 148.179688"></polygon>
    <path d="M119.642409,154.945801 L140.947248,232.404053 C140.947248,232.404053 106.068229,247.827148 106.068229,246.095703 C106.068229,244.364258 119.642409,154.945801 119.642409,154.945801 Z" id="rock-18" fill="#666A2F"></path>
    <polygon id="rock-17" fill="#666A2F" points="81.1329121 32.328125 62.8755874 67.3701172 78.9381911 152.191895"></polygon>
    <polygon id="rock-16" fill="#353E0D" points="80.9308179 32.4140625 78.888778 150.301758 96.1045402 82.2734375"></polygon>
    <polygon id="rock-15" fill="#9EB275" points="96.0101556 81.7919922 111.835687 130.818359 77.0033056 151.515625"></polygon>
    <polygon id="rock-14" fill="#DBEBB8" points="78.7122231 152.022461 98.4114124 149.528809 76.8167571 137.307617"></polygon>
    <polygon id="rock-13" fill="#9EB275" points="0.042052572 151.142578 73.9630091 115.443359 79.2896352 151.917969"></polygon>
    <polygon id="rock-12" fill="#9EB275" points="79.3579253 151.640137 98.8228185 291.424805 98.2742771 149.226562"></polygon>
    <polygon id="rock-11" fill="#353E0D" points="79.4001208 151.522461 55.9233242 151.522461 33.2998761 222.609375"></polygon>
    <polygon id="rock-10" fill="#666A2F" points="56.2098094 151.448242 33.3076489 222.542969 0.169749467 150.614258"></polygon>
    <polygon id="rock-9" fill="#DBEBB8" points="79.4317674 151.455078 33.2021602 222.516602 98.6562573 289.75"></polygon>
    <polygon id="rock-8" fill="#666A2F" points="98.2159806 158.608398 110.857418 163.737305 98.9532914 290.928711"></polygon>
    <polygon id="rock-7" fill="#DBEBB8" points="99.0415688 290.378906 119.901689 274.321289 108.392313 189.734375"></polygon>
    <polygon id="rock-6" fill="#353E0D" points="119.529425 154.663818 139.384904 140.663086 140.859526 232.667969"></polygon>
    <polygon id="rock-5" fill="#9EB275" points="140.87868 232.820801 153.760244 187.587891 139.483731 153.446045"></polygon>
    <polygon id="rock-4" fill="#666A2F" points="153.77218 187.492432 140.729608 232.075195 165.815663 197.96167"></polygon>
    <polygon id="rock-3" fill="#9EB275" points="165.654932 197.764648 163.969333 265.636719 185.250298 277.554688"></polygon>
    <polygon id="rock-2" fill="#353E0D" points="165.623563 197.929199 140.603022 232.307617 164.843224 236.706055"></polygon>
    <polygon id="rock-1" fill="#666A2F" points="165.689632 197.923828 185.2199 277.561279 198 260"></polygon>
</svg>