<svg width="100%" height="100%" id="svg-blanca-traverse" viewBox="0 0 465 258" version="1.1" xmlns="http://www.w3.org/2000/svg" xmlns:xlink="http://www.w3.org/1999/xlink">
    <g id="mountain" stroke="none" stroke-width="1" fill="none" fill-rule="evenodd">
        <polygon id="shard-1" fill="#2D354A" points="135.4375 25.2382812 59.9082031 145.662109 318.867188 185.699219"></polygon>
        <polygon id="shard-2" fill="#64646E" points="236.566406 77.8066406 179 64.1542969 290.037109 163.134766"></polygon>
        <path d="M0.359375,144.949219 L323.332031,188.558594 L27.4853454,196.625 L0.359375,144.949219 Z" id="shard-3" fill="#93AFF8"></path>
        <polygon id="shard-4" fill="#2D354A" points="236.327148 77.6523438 307.823242 192.136719 338.052734 85.4101562"></polygon>
        <polygon id="shard-5" fill="#64646E" points="236.68457 78.0200195 306.648438 13.1025391 362.445312 88.7441406"></polygon>
        <polygon id="shard-6" fill="#EBE5E7" points="198.913086 180.294922 240.170898 257.857422 327.953125 199.385742"></polygon>
        <polygon id="shard-7" fill="#AEA8AA" points="198.634766 180.248047 230.737305 157.15625 326.928711 199.394531"></polygon>
        <polygon id="shard-8" fill="#EBE5E7" points="251.618164 166.311523 271.982422 122.072266 328.283203 200.269531"></polygon>
        <polygon id="shard-9" fill="#AEA8AA" points="271.723633 121.77832 389.291992 209.035156 327.547852 199.828125"></polygon>
        <polygon id="shard-10" fill="#2D354A" points="363.367188 6.34277344 332.251953 103.421875 405.614502 86.736084"></polygon>
        <polygon id="shard-11" fill="#EBE5E7" points="310.924805 74.2333984 296.935547 141.009766 339.266602 172.801758"></polygon>
        <polygon id="shard-12" fill="#AEA8AA" points="311.063477 74.7519531 353.732422 91.3662109 339.243164 172.490234"></polygon>
        <polygon id="shard-13" fill="#64646E" points="352.861328 91.2636719 393.918945 87.9384766 339.392578 171.766602"></polygon>
        <polygon id="shard-14" fill="#64646E" points="464.029297 197.457031 363.03125 6.00195312 442.820312 81.6992188"></polygon>
        <polygon id="shard-15" fill="#EBE5E7" points="394.077148 87.4023438 339.336914 171.943359 389.11084 209.119873"></polygon>
        <path d="M410.80957,79.2041016 L388.981445,209.131592 C388.981445,209.131592 464.661133,197.648438 463.549805,197.648438 C462.438477,197.648438 410.80957,79.2041016 410.80957,79.2041016 Z" id="shard-16" fill="#EBE5E7"></path>
        <polygon id="shard-17" fill="#AEA8AA" points="363.349609 6.27832031 344.712891 14.2617188 332.101562 0.908203125"></polygon>
        <polygon id="shard-18" fill="#64646E" points="345.03418 14.1865234 343.255371 69.0742188 363.805664 5.87011719"></polygon>
        <polygon id="shard-19" fill="#AEA8AA" points="393.979614 87.5 410.881592 79.1422119 389.136963 209.307617"></polygon>
        <path d="M345.136719,14.1821289 L312.941406,22.7441406 L343.255127,69.0418701 L345.136719,14.1821289 Z" id="shard-20" fill="#2D354A"></path>
        <polygon id="shard-21" fill="#64646E" points="345.37207 14.0566406 332.351562 0.961914062 312.894531 22.890625"></polygon>
        <path d="M146.285928,174.553717 C193.039692,215.651919 240.209225,257.516113 240.209225,257.516113 L161.275391,108.703125 L144.515625,172.997559 C144.515625,172.997559 99.532163,133.455514 146.285928,174.553717 Z" id="shard-22" fill="#AEA8AA"></path>
        <polygon id="shard-23" fill="#64646E" points="161.240234 108.794922 100.544922 155.322266 145.117188 173.445312"></polygon>
        <polygon id="shard-24" fill="#AEA8AA" points="145.260254 172.931641 104.304688 216.550781 101.036133 154.883789"></polygon>
        <polygon id="shard-25" fill="#EBE5E7" points="145.070312 172.741699 103.852539 216.036112 240.308594 257.333008"></polygon>
        <polygon id="shard-26" fill="#64646E" points="101.12793 154.865234 4.96484375 230.025391 104.674805 216.754883"></polygon>
        <polygon id="shard-27" fill="#E91A5F" points="217 151 221.574219 172.873047 223.685547 153.445312"></polygon>
        <path d="M308,97 C308,97 310.408203,111.390625 310.408203,108.297852 C310.408203,105.205078 311.84375,98.5185547 311.84375,98.5185547 L308,97 Z" id="shard-28" fill="#259224"></path>
        <path d="M326.232422,82.0849609 L325,71 L328.769531,72.5556641 L326.232422,82.0849609 Z" id="shard-29" fill="#E3E256"></path>
        <polygon id="shard-30" fill="#64646E" points="135.582031 25.0820312 24.6640625 126.53125 60.2226562 145.808594"></polygon>
    </g>
</svg>